<svg version="1.1" viewBox="0.0 0.0 960.0 720.0" fill="none" stroke="none" stroke-linecap="square" stroke-miterlimit="10" xmlns:xlink="http://www.w3.org/1999/xlink" xmlns="http://www.w3.org/2000/svg"><clipPath id="p.0"><path d="m0 0l960.0 0l0 720.0l-960.0 0l0 -720.0z" clip-rule="nonzero"/></clipPath><g clip-path="url(#p.0)"><path fill="#000000" fill-opacity="0.0" d="m0 0l960.0 0l0 720.0l-960.0 0z" fill-rule="evenodd"/><path fill="#980900" d="m169.07729 214.39142l107.892166 0l10.964386 10.964386l0 54.820587l-118.85655 0z" fill-rule="evenodd"/><path fill="#6d9eeb" d="m321.14124 214.39142l107.89215 0l10.964386 10.964386l0 54.820587l-118.85654 0z" fill-rule="evenodd"/><path fill="#6d9eeb" d="m473.2047 15.186352l376.8075 0l44.168884 44.16886l0 220.839l-420.97638 0z" fill-rule="evenodd"/><path fill="#980900" d="m169.07729 297.8888l107.892166 0l10.964386 10.964386l0 54.820587l-118.85655 0z" fill-rule="evenodd"/><path fill="#980900" d="m625.2691 297.8888l107.89215 0l10.9644165 10.964386l0 54.820587l-118.85657 0z" fill-rule="evenodd"/><path fill="#980900" d="m169.07729 381.38617l107.892166 0l10.964386 10.964386l0 54.820587l-118.85655 0z" fill-rule="evenodd"/><path fill="#980900" d="m625.2691 381.38617l107.89215 0l10.9644165 10.964386l0 54.820587l-118.85657 0z" fill-rule="evenodd"/><path fill="#980900" d="m169.07729 464.88354l107.892166 0l10.964386 10.964386l0 54.820587l-118.85655 0z" fill-rule="evenodd"/><path fill="#980900" d="m321.14124 464.88354l107.89215 0l10.964386 10.964386l0 54.820587l-118.85654 0z" fill-rule="evenodd"/><path fill="#980900" d="m473.20517 464.88354l107.89218 0l10.964355 10.964386l0 54.820587l-118.85654 0z" fill-rule="evenodd"/><path fill="#980900" d="m169.07729 548.3809l107.892166 0l10.964386 10.9644165l0 54.820557l-118.85655 0z" fill-rule="evenodd"/><path fill="#980900" d="m473.20517 548.3809l107.89218 0l10.964355 10.9644165l0 54.820557l-118.85654 0z" fill-rule="evenodd"/><path fill="#980900" d="m169.07729 631.8783l107.892166 0l10.964386 10.9644165l0 54.820557l-118.85655 0z" fill-rule="evenodd"/><path fill="#980900" d="m625.2691 631.8783l107.89215 0l10.9644165 10.9644165l0 54.820557l-118.85657 0z" fill-rule="evenodd"/><path fill="#6d9eeb" d="m17.013346 214.39142l107.892166 0l10.964378 10.964386l0 54.820587l-118.856544 0z" fill-rule="evenodd"/><g filter="url(#shadowFilter-p.1)"><use xlink:href="#p.1" transform="matrix(1.0 0.0 0.0 1.0 2.0 0.0)"/></g><defs><filter id="shadowFilter-p.1" filterUnits="userSpaceOnUse"><feGaussianBlur in="SourceAlpha" stdDeviation="1.0" result="blur"/><feComponentTransfer in="blur" color-interpolation-filters="sRGB"><feFuncR type="linear" slope="0" intercept="0.0"/><feFuncG type="linear" slope="0" intercept="0.0"/><feFuncB type="linear" slope="0" intercept="0.0"/><feFuncA type="linear" slope="0.5" intercept="0"/></feComponentTransfer></filter></defs><g id="p.1"><path fill="#000000" fill-opacity="0.0" d="m473.2047 15.186352l466.5512 0l0 294.11026l-466.5512 0z" fill-rule="evenodd"/><path fill="#980900" d="m666.72034 170.66136q0 15.4375 -5.390625 28.484375q-5.390625 13.03125 -14.921875 22.515625q-9.53125 9.46875 -22.578125 14.796875q-13.03125 5.328125 -28.21875 5.328125l-77.703125 0q-4.046875 0 -7.5625 -1.46875q-3.515625 -1.46875 -6.125 -4.0625q-2.59375 -2.609375 -4.0625 -6.125q-1.46875 -3.515625 -1.46875 -7.5625l0 -129.70312q0 -3.9375 1.453125 -7.4375q1.46875 -3.5 4.0625 -6.15625q2.59375 -2.671875 6.125 -4.140625q3.53125 -1.484375 7.578125 -1.484375l77.703125 0q15.1875 0 28.21875 5.328125q13.046875 5.328125 22.578125 14.8125q9.53125 9.46875 14.921875 22.5625q5.390625 13.093758 5.390625 28.421883l0 25.890625zm-38.203125 -25.890625q0 -7.53125 -2.375 -13.609375q-2.359375 -6.0937576 -6.640625 -10.312508q-4.28125 -4.234375 -10.328125 -6.609375q-6.046875 -2.375 -13.5625 -2.375l-58.703125 0l0 91.70313l58.703125 0q7.515625 0 13.5625 -2.375q6.046875 -2.375 10.328125 -6.59375q4.28125 -4.234375 6.640625 -10.265625q2.375 -6.03125 2.375 -13.671875l0 -25.890625zm225.0149 -13.0625q0 10.5625 -2.65625 19.015625q-2.640625 8.4375 -7.203125 14.953125q-4.5625 6.515625 -10.5 11.109375q-5.921875 4.578125 -12.328125 7.515625q-6.40625 2.9375 -12.9375 4.265625q-6.53125 1.3125 -7.0 -1.421875l67.46875 54.640625l-58.953125 0l-59.984375 -51.90625l-23.640625 0l0 -38.21875l69.609375 0q4.5 -0.359375 8.21875 -1.875q3.734375 -1.53125 6.3125 -3.96875q2.578125 -2.4375 3.984375 -5.90625q1.40625 -3.484375 1.40625 -8.203125l0 -18.156258q0 -1.34375 -0.09375 -1.53125q-0.09375 -0.203125 0 -0.140625q0.09375 0.0625 -0.28125 0.03125q-0.359375 -0.046875 -1.0 -0.046875l-90.234375 0l0 129.92188l-38.203125 0l0 -148.92188q0 -3.921875 1.453125 -7.421875q1.453125 -3.515625 4.046875 -6.171875q2.59375 -2.671875 6.125 -4.140625q3.53125 -1.484375 7.578125 -1.484375l109.234375 0q10.796875 0 18.390625 3.984375q7.609375 3.984375 12.34375 10.0q4.75 6.0 6.796875 12.859375q2.046875 6.84375 2.046875 12.84375l0 18.375008z" fill-rule="nonzero"/></g></g></svg>