<svg version="1.1" viewBox="0.0 0.0 237.7270341207349 237.7270341207349" fill="none" stroke="none" stroke-linecap="square" stroke-miterlimit="10" xmlns:xlink="http://www.w3.org/1999/xlink" xmlns="http://www.w3.org/2000/svg"><clipPath id="p.0"><path d="m0 0l237.72704 0l0 237.72704l-237.72704 0l0 -237.72704z" clip-rule="nonzero"/></clipPath><g clip-path="url(#p.0)"><path fill="#000000" fill-opacity="0.0" d="m0 0l237.72704 0l0 237.72704l-237.72704 0z" fill-rule="evenodd"/><path fill="#a61c00" d="m8.216536 45.099163l0 0c0 -20.369713 16.512915 -36.88263 36.88263 -36.88263l147.52608 0l0 0c9.781891 0 19.163116 3.8858366 26.079956 10.802671c6.9168396 6.916834 10.802673 16.298077 10.802673 26.079956l0 147.52608c0 20.36972 -16.512909 36.88263 -36.88263 36.88263l-147.52608 0c-20.369713 0 -36.88263 -16.512909 -36.88263 -36.88263z" fill-rule="evenodd"/><path fill="#ffffff" d="m8.217848 49.866444l166.00525 0l-13.598434 33.639782l-152.40681 0z" fill-rule="evenodd"/><path fill="#ffffff" d="m8.328084 98.89764l0 33.64109l145.63202 0l20.37088 -33.64109z" fill-rule="evenodd"/><path fill="#ffffff" d="m62.881844 98.897675l-19.340996 19.340996l83.916275 83.93574l31.079132 -7.600128z" fill-rule="evenodd"/><path fill="#ffffff" d="m174.23097 49.968502l-40.755905 82.679794l27.220474 0l41.04724 -82.679794z" fill-rule="evenodd"/><path fill="#ffffff" d="m157.3412 49.968502l-40.755898 82.679794l27.220467 0l41.04724 -82.679794z" fill-rule="evenodd"/><path fill="#ffffff" d="m75.362045 98.897644l-19.340992 19.340996l81.59013 81.59986l30.753754 -7.9268646z" fill-rule="evenodd"/></g></svg>