<svg xmlns="http://www.w3.org/2000/svg" viewBox="0 0 500 500"><g id="freepik--background-simple--inject-240"><path d="M457,228.18s-6-99.13-85-147.31C335.07,58.34,289.58,44.13,244.61,44,200,43.88,153.08,59.64,131.05,97.76c-14.18,24.52-16.33,51.94-23.56,78.37C90.25,239.08,0,278.06,23,351.57c6.79,21.68,24.08,39.56,44.4,52,46,28.19,105.21,36.56,159.24,38.4,43.21,1.47,89.82-4.09,129.46-20.61,38.46-16,67.69-46.13,84.68-81.54C458.29,303.23,459.34,267.31,457,228.18Z" style="fill:#706C61"></path><path d="M457,228.18s-6-99.13-85-147.31C335.07,58.34,289.58,44.13,244.61,44,200,43.88,153.08,59.64,131.05,97.76c-14.18,24.52-16.33,51.94-23.56,78.37C90.25,239.08,0,278.06,23,351.57c6.79,21.68,24.08,39.56,44.4,52,46,28.19,105.21,36.56,159.24,38.4,43.21,1.47,89.82-4.09,129.46-20.61,38.46-16,67.69-46.13,84.68-81.54C458.29,303.23,459.34,267.31,457,228.18Z" style="fill:#fff;opacity:0.7000000000000001"></path></g></svg>