<svg version="1.1" viewBox="0.0 0.0 267.501312335958 225.249343832021" fill="none" stroke="none" stroke-linecap="square" stroke-miterlimit="10" xmlns:xlink="http://www.w3.org/1999/xlink" xmlns="http://www.w3.org/2000/svg"><clipPath id="p.0"><path d="m0 0l267.5013 0l0 225.24934l-267.5013 0l0 -225.24934z" clip-rule="nonzero"/></clipPath><g clip-path="url(#p.0)"><path fill="#000000" fill-opacity="0.0" d="m0 0l267.5013 0l0 225.24934l-267.5013 0z" fill-rule="evenodd"/><path fill="#ffffff" d="m0.25459316 0.25459316l267.24408 0l0 223.2441l-267.24408 0z" fill-rule="evenodd"/><path stroke="#ffffff" stroke-width="1.0" stroke-linejoin="round" stroke-linecap="butt" d="m0.25459316 0.25459316l267.24408 0l0 223.2441l-267.24408 0z" fill-rule="evenodd"/><path fill="#980900" d="m69.76378 22.771654l32.209892 0l4.136566 4.1365643l0 20.682331l-36.34646 0z" fill-rule="evenodd"/><path fill="#384d48" d="m116.26509 22.771654l32.209885 0l4.136566 4.1365643l0 20.682331l-36.34645 0z" fill-rule="evenodd"/><path fill="#384d48" d="m162.7664 22.771654l32.209885 0l4.136566 4.1365643l0 20.682331l-36.34645 0z" fill-rule="evenodd"/><path fill="#980900" d="m69.76378 54.272964l32.209892 0l4.136566 4.136566l0 20.682335l-36.34646 0z" fill-rule="evenodd"/><path fill="#980900" d="m209.26772 54.272964l32.209885 0l4.136566 4.136566l0 20.682335l-36.34645 0z" fill-rule="evenodd"/><path fill="#980900" d="m69.76378 85.77428l32.209892 0l4.136566 4.136566l0 20.682335l-36.34646 0z" fill-rule="evenodd"/><path fill="#980900" d="m209.26772 85.77428l32.209885 0l4.136566 4.136566l0 20.682335l-36.34645 0z" fill-rule="evenodd"/><path fill="#980900" d="m69.76378 117.27559l32.209892 0l4.136566 4.136566l0 20.682327l-36.34646 0z" fill-rule="evenodd"/><path fill="#980900" d="m116.26509 117.27559l32.209885 0l4.136566 4.136566l0 20.682327l-36.34645 0z" fill-rule="evenodd"/><path fill="#980900" d="m162.7664 117.27559l32.209885 0l4.136566 4.136566l0 20.682327l-36.34645 0z" fill-rule="evenodd"/><path fill="#980900" d="m69.76378 148.7769l32.209892 0l4.136566 4.136566l0 20.682327l-36.34646 0z" fill-rule="evenodd"/><path fill="#980900" d="m162.7664 148.7769l32.209885 0l4.136566 4.136566l0 20.682327l-36.34645 0z" fill-rule="evenodd"/><path fill="#980900" d="m69.76378 180.27821l32.209892 0l4.136566 4.136566l0 20.682327l-36.34646 0z" fill-rule="evenodd"/><path fill="#980900" d="m209.26772 180.27821l32.209885 0l4.136566 4.136566l0 20.682327l-36.34645 0z" fill-rule="evenodd"/><path fill="#384d48" d="m23.262466 22.771654l32.209892 0l4.136566 4.1365643l0 20.682331l-36.34646 0z" fill-rule="evenodd"/></g></svg>