<svg version="1.1" viewBox="0.0 0.0 817.8635170603675 403.4409448818898" fill="none" stroke="none" stroke-linecap="square" stroke-miterlimit="10" xmlns:xlink="http://www.w3.org/1999/xlink" xmlns="http://www.w3.org/2000/svg"><clipPath id="p.0"><path d="m0 0l817.8635 0l0 403.44095l-817.8635 0l0 -403.44095z" clip-rule="nonzero"/></clipPath><g clip-path="url(#p.0)"><path fill="#000000" fill-opacity="0.0" d="m0 0l817.8635 0l0 403.44095l-817.8635 0z" fill-rule="evenodd"/><path fill="#980900" d="m58.16798 40.687664l32.20989 0l4.136566 4.136566l0 20.682331l-36.346455 0z" fill-rule="evenodd"/><path fill="#384d48" d="m104.66929 40.687664l32.209892 0l4.136566 4.136566l0 20.682331l-36.34646 0z" fill-rule="evenodd"/><path fill="#384d48" d="m151.17061 40.687664l32.209885 0l4.136566 4.136566l0 20.682331l-36.34645 0z" fill-rule="evenodd"/><path fill="#980900" d="m58.16798 72.18898l32.20989 0l4.136566 4.1365585l0 20.682335l-36.346455 0z" fill-rule="evenodd"/><path fill="#980900" d="m197.67192 72.18898l32.209885 0l4.136566 4.1365585l0 20.682335l-36.34645 0z" fill-rule="evenodd"/><path fill="#980900" d="m58.16798 103.69029l32.20989 0l4.136566 4.1365585l0 20.682335l-36.346455 0z" fill-rule="evenodd"/><path fill="#980900" d="m197.67192 103.69029l32.209885 0l4.136566 4.1365585l0 20.682335l-36.34645 0z" fill-rule="evenodd"/><path fill="#980900" d="m58.16798 135.1916l32.20989 0l4.136566 4.136566l0 20.682327l-36.346455 0z" fill-rule="evenodd"/><path fill="#980900" d="m104.66929 135.1916l32.209892 0l4.136566 4.136566l0 20.682327l-36.34646 0z" fill-rule="evenodd"/><path fill="#980900" d="m151.17061 135.1916l32.209885 0l4.136566 4.136566l0 20.682327l-36.34645 0z" fill-rule="evenodd"/><path fill="#980900" d="m58.16798 166.69292l32.20989 0l4.136566 4.136566l0 20.682327l-36.346455 0z" fill-rule="evenodd"/><path fill="#980900" d="m151.17061 166.69292l32.209885 0l4.136566 4.136566l0 20.682327l-36.34645 0z" fill-rule="evenodd"/><path fill="#980900" d="m58.16798 198.19423l32.20989 0l4.136566 4.136566l0 20.682327l-36.346455 0z" fill-rule="evenodd"/><path fill="#980900" d="m197.67192 198.19423l32.209885 0l4.136566 4.136566l0 20.682327l-36.34645 0z" fill-rule="evenodd"/><path fill="#384d48" d="m11.666667 40.687664l32.20989 0l4.136566 4.136566l0 20.682331l-36.346455 0z" fill-rule="evenodd"/><path fill="#000000" fill-opacity="0.0" d="m240.17848 56.939632l575.2126 0l0 213.32285l-575.2126 0z" fill-rule="evenodd"/><path fill="#980900" d="m296.05347 134.61775q18.359375 0 29.328125 12.625q10.984375 12.609375 10.984375 32.21875l-0.15625 4.21875l-59.6875 0q0.46875 10.703125 5.578125 15.859375q5.125 5.15625 14.65625 5.15625q6.171875 0 11.40625 -3.15625q5.234375 -3.171875 6.640625 -7.625l20.0 0q-4.609375 14.0625 -14.21875 20.984375q-9.609375 6.90625 -24.53125 6.90625q-19.140625 0 -30.703125 -12.109375q-11.562485 -12.109375 -11.562485 -31.40625q0 -18.515625 11.82811 -31.09375q11.84375 -12.578125 30.4375 -12.578125zm-19.53125 34.6875l36.953125 0q-1.640625 -9.140625 -5.90625 -13.359375q-4.25 -4.21875 -12.296875 -4.21875q-8.28125 0 -13.125 4.6875q-4.84375 4.6875 -5.625 12.890625zm140.07812 -32.5l0 17.109375l-43.046875 48.515625l46.09375 0l0 17.109375l-76.015625 0l0 -17.109375l43.046875 -48.515625l-39.84375 0l0 -17.109375l69.765625 0zm83.046875 -31.484375l0 114.21875l-22.734375 0l0 -114.21875l22.734375 0zm100.546875 29.296875q18.359375 0 29.328125 12.625q10.984375 12.609375 10.984375 32.21875l-0.15625 4.21875l-59.6875 0q0.46875 10.703125 5.578125 15.859375q5.125 5.15625 14.65625 5.15625q6.171875 0 11.40625 -3.15625q5.234375 -3.171875 6.640625 -7.625l20.0 0q-4.609375 14.0625 -14.21875 20.984375q-9.609375 6.90625 -24.53125 6.90625q-19.140625 0 -30.703125 -12.109375q-11.5625 -12.109375 -11.5625 -31.40625q0 -18.515625 11.828125 -31.09375q11.84375 -12.578125 30.4375 -12.578125zm-19.53125 34.6875l36.953125 0q-1.640625 -9.140625 -5.90625 -13.359375q-4.25 -4.21875 -12.296875 -4.21875q-8.28125 0 -13.125 4.6875q-4.84375 4.6875 -5.625 12.890625zm120.625 -34.6875q15.859375 0 23.0 8.015625q7.15625 8.0 7.15625 25.1875l0 51.71875l-22.734375 0l0 -47.421875q0 -9.6875 -3.328125 -14.640625q-3.3125 -4.96875 -11.203125 -4.96875q-9.453125 0 -13.5625 5.625q-4.09375 5.625 -4.09375 17.265625l0 44.140625l-22.65625 0l0 -82.734375l21.5625 0l0 11.5625l0.46875 0q4.140625 -6.640625 10.78125 -10.1875q6.640625 -3.5625 14.609375 -3.5625zm76.171875 -22.578125l0 24.765625l16.640625 0l0 15.234375l-16.640625 0l0 41.484375q0 5.078125 1.90625 7.078125q1.921875 1.984375 7.703125 1.984375q1.953125 0 3.75 -0.15625q1.796875 -0.15625 3.28125 -0.46875l0 17.734375q-2.8125 0.46875 -6.296875 0.625q-3.46875 0.15625 -6.828125 0.15625q-14.765625 0 -20.515625 -5.03125q-5.734375 -5.046875 -5.734375 -14.109375l0 -49.296875l-13.75 0l0 -15.234375l13.75 0l0 -24.765625l22.734375 0z" fill-rule="nonzero"/><path fill="#000000" fill-opacity="0.0" d="m11.666667 214.70866l803.7165 0l0 185.82677l-803.7165 0z" fill-rule="evenodd"/><path fill="#384d48" d="m97.71354 257.5174l0 7.984375l-34.20312 0l0 90.046875l-9.3125 0l0 -90.046875l-34.203125 0l0 -7.984375l77.71875 0zm22.790085 25.140625q14.421883 0 22.796883 10.46875q8.390625 10.453125 8.390625 27.890625l0 1.40625l-54.515633 0q0.203125 12.34375 6.609375 20.125q6.40625 7.765625 16.71875 7.765625q8.656258 0 14.218758 -4.453125q5.5625 -4.46875 8.046875 -13.640625l8.65625 0q-3.015625 12.796875 -10.59375 19.109375q-7.578125 6.296875 -20.328133 6.296875q-15.015625 0 -23.5 -10.046875q-8.484375 -10.0625 -8.484375 -27.4375q0 -16.5 8.515625 -26.984375q8.515625 -10.5 23.46875 -10.5zm22.531258 32.53125q-0.328125 -10.53125 -6.609375 -17.90625q-6.265625 -7.375 -16.046883 -7.375q-9.1875 0 -15.46875 6.84375q-6.265625 6.828125 -7.734375 18.4375l45.859383 0zm50.23233 -32.53125q12.46875 0 19.875 6.4375q7.421875 6.4375 8.828125 17.84375l-8.65625 0q-1.875 -8.453125 -6.90625 -12.734375q-5.03125 -4.296875 -13.140625 -4.296875q-11.140625 0 -17.984375 8.75q-6.828125 8.75 -6.828125 21.484375q0 12.609375 6.828125 21.390625q6.84375 8.78125 17.984375 8.78125q7.78125 0 13.671875 -5.5q5.90625 -5.5 6.984375 -14.671875l8.640625 0q-2.0 13.203125 -9.71875 20.34375q-7.71875 7.140625 -19.578125 7.140625q-15.015625 0 -24.25 -10.5625q-9.21875 -10.5625 -9.21875 -26.921875q0 -16.421875 9.1875 -26.953125q9.1875 -10.53125 24.28125 -10.53125zm49.88858 -25.140625l0 39.421875l0.265625 0q2.484375 -6.359375 8.71875 -10.3125q6.234375 -3.96875 14.015625 -3.96875q13.609375 0 19.734375 6.640625q6.140625 6.640625 6.140625 19.984375l0 46.265625l-8.640625 0l0 -44.796875q0 -10.25 -4.46875 -15.546875q-4.453125 -5.296875 -13.5 -5.296875q-7.109375 0 -12.25 3.453125q-5.125 3.453125 -7.578125 9.25q-2.4375 5.796875 -2.4375 11.5l0 41.4375l-8.65625 0l0 -98.03125l8.65625 0zm96.76019 25.140625q13.609375 0 19.734375 6.640625q6.140625 6.640625 6.140625 19.984375l0 46.265625l-8.640625 0l0 -44.796875q0 -10.25 -4.46875 -15.546875q-4.453125 -5.296875 -13.5 -5.296875q-7.109375 0 -12.25 3.453125q-5.125 3.453125 -7.578125 9.25q-2.4375 5.796875 -2.4375 11.5l0 41.4375l-8.65625 0l0 -70.875l8.65625 0l0 12.265625l0.265625 0q2.484375 -6.359375 8.71875 -10.3125q6.234375 -3.96875 14.015625 -3.96875zm72.15085 0q15.15625 0 24.34375 10.53125q9.1875 10.53125 9.1875 26.953125q0 9.921875 -3.796875 18.515625q-3.78125 8.578125 -11.53125 13.78125q-7.75 5.1875 -18.203125 5.1875q-15.015625 0 -24.25 -10.5625q-9.21875 -10.5625 -9.21875 -26.921875q0 -16.421875 9.1875 -26.953125q9.1875 -10.53125 24.28125 -10.53125zm-24.8125 37.484375q0 12.546875 6.765625 21.359375q6.78125 8.8125 18.046875 8.8125q11.265625 0 18.0625 -8.84375q6.8125 -8.859375 6.8125 -21.328125q0 -12.46875 -6.8125 -21.34375q-6.796875 -8.890625 -18.203125 -8.890625q-11.0 0 -17.84375 8.78125q-6.828125 8.78125 -6.828125 21.453125zm80.06287 -62.625l0 98.03125l-8.65625 0l0 -98.03125l8.65625 0zm46.538757 25.140625q15.156311 0 24.343811 10.53125q9.1875 10.53125 9.1875 26.953125q0 9.921875 -3.796875 18.515625q-3.78125 8.578125 -11.53125 13.78125q-7.75 5.1875 -18.203186 5.1875q-15.015625 0 -24.25 -10.5625q-9.21875 -10.5625 -9.21875 -26.921875q0 -16.421875 9.1875 -26.953125q9.1875 -10.53125 24.28125 -10.53125zm-24.8125 37.484375q0 12.546875 6.765625 21.359375q6.78125 8.8125 18.046875 8.8125q11.265686 0 18.062561 -8.84375q6.8125 -8.859375 6.8125 -21.328125q0 -12.46875 -6.8125 -21.34375q-6.796875 -8.890625 -18.203186 -8.890625q-11.0 0 -17.84375 8.78125q-6.828125 8.78125 -6.828125 21.453125zm99.64105 -37.484375q7.515625 0 13.671875 4.03125q6.171875 4.015625 8.921875 10.25l0.28125 0l0 -12.265625l8.640625 0l0 65.84375q0 16.359375 -7.640625 24.84375q-7.640625 8.484375 -23.734375 8.484375q-12.078125 0 -20.359375 -5.609375q-8.28125 -5.59375 -9.078125 -15.84375l8.640625 0q1.078125 6.703125 6.546875 10.421875q5.46875 3.71875 14.171875 3.71875q11.546875 0 17.171875 -6.578125q5.640625 -6.5625 5.640625 -19.5l0 -10.265625l-0.28125 0q-3.21875 6.90625 -9.21875 10.734375q-6.0 3.828125 -13.375 3.828125q-15.15625 0 -23.546875 -9.5625q-8.375 -9.5625 -8.375 -26.78125q0 -15.5625 8.6875 -25.65625q8.6875 -10.09375 23.234375 -10.09375zm-23.265625 36.609375q0 12.546875 6.328125 20.359375q6.34375 7.8125 17.0 7.8125q10.265625 0 16.53125 -8.109375q6.28125 -8.125 6.28125 -20.0625q0 -12.609375 -6.046875 -20.984375q-6.03125 -8.375 -16.890625 -8.375q-10.65625 0 -16.9375 8.140625q-6.265625 8.140625 -6.265625 21.21875z" fill-rule="nonzero"/><path fill="#384d48" d="m703.27655 282.65802q14.421875 0 22.796875 10.46875q8.390625 10.453125 8.390625 27.890625l0 1.40625l-54.515625 0q0.203125 12.34375 6.609375 20.125q6.40625 7.765625 16.71875 7.765625q8.65625 0 14.21875 -4.453125q5.5625 -4.46875 8.046875 -13.640625l8.65625 0q-3.015625 12.796875 -10.59375 19.109375q-7.578125 6.296875 -20.328125 6.296875q-15.015625 0 -23.5 -10.046875q-8.484375 -10.0625 -8.484375 -27.4375q0 -16.5 8.515625 -26.984375q8.515625 -10.5 23.46875 -10.5zm22.53125 32.53125q-0.328125 -10.53125 -6.609375 -17.90625q-6.265625 -7.375 -16.046875 -7.375q-9.1875 0 -15.46875 6.84375q-6.265625 6.828125 -7.734375 18.4375l45.859375 0zm45.466675 -32.53125q11.53125 0 18.40625 5.90625q6.875 5.890625 7.546875 16.828125l-8.65625 0q-0.390625 -7.515625 -5.453125 -11.5q-5.0625 -3.984375 -13.109375 -3.984375q-7.515625 0 -12.140625 3.21875q-4.625 3.21875 -4.625 8.984375q0 4.546875 4.125 7.53125q4.125 2.984375 10.625 4.46875l14.8125 3.28125q7.3125 1.671875 12.109375 6.578125q4.796875 4.890625 4.796875 12.328125q0 9.921875 -8.15625 15.625q-8.140625 5.703125 -20.34375 5.703125q-13.140625 0 -20.59375 -6.296875q-7.4375 -6.3125 -8.515625 -18.71875l8.71875 0q0.46875 8.390625 6.140625 13.046875q5.671875 4.65625 14.71875 4.65625q8.046875 0 13.703125 -3.609375q5.671875 -3.625 5.671875 -9.859375q0 -4.765625 -3.65625 -7.90625q-3.65625 -3.15625 -12.171875 -5.046875l-10.859375 -2.40625q-9.3125 -2.015625 -14.546875 -6.5q-5.234375 -4.5 -5.234375 -12.484375q0 -9.1875 7.5 -14.515625q7.515625 -5.328125 19.1875 -5.328125z" fill-rule="nonzero"/><path fill="#980900" d="m435.8924 136.5328l23.496063 0l0 83.37009l-23.496063 0z" fill-rule="evenodd"/><path fill="#980900" d="m518.75854 137.41733l23.496033 0l0 83.37007l-23.496033 0z" fill-rule="evenodd"/><path fill="#384d48" d="m435.8924 106.48819l19.579956 0l3.9161072 3.9160843l0 20.90281l-23.496063 0z" fill-rule="evenodd"/><path fill="#384d48" d="m516.4724 106.48819l21.658752 0l4.1365356 4.136566l0 20.682327l-25.795288 0z" fill-rule="evenodd"/><path fill="#384d48" d="m641.021 283.69553l9.7323 0l0 71.968506l-9.7323 0z" fill-rule="evenodd"/><path fill="#980900" d="m641.021 258.87665l9.002563 0l1.8005981 1.8005676l0 14.073456l-10.803162 0z" fill-rule="evenodd"/></g></svg>