<svg xmlns="http://www.w3.org/2000/svg" viewBox="0 0 500 500"><g id="freepik--background-simple--inject-290"><path d="M86.71,305.24c55.88,49.39,105.86,50,176.56,54.19s120.16-11.56,153.08-50.07c38-44.49,24.67-133.36-45.41-156.47-21.9-7.24-46.82-7-66.69-18.65-37.94-22.15-71.22-60-127.57-60.58s-88.79,41.42-88.79,41.42C49,170.8,30.83,255.85,86.71,305.24Z" style="fill:#980900"></path><path d="M86.71,305.24c55.88,49.39,105.86,50,176.56,54.19s120.16-11.56,153.08-50.07c38-44.49,24.67-133.36-45.41-156.47-21.9-7.24-46.82-7-66.69-18.65-37.94-22.15-71.22-60-127.57-60.58s-88.79,41.42-88.79,41.42C49,170.8,30.83,255.85,86.71,305.24Z" style="fill:#fff;opacity:0.7000000000000001;isolation:isolate"></path></g></svg>